<svg width="191" height="38" viewBox="0 0 191 38" fill="none" xmlns="http://www.w3.org/2000/svg">
<g filter="url(#filter0_dd_49003_391)">
<rect x="3.1" y="2.1" width="31.8" height="31.8" rx="7.9" fill="white"/>
<rect x="3.1" y="2.1" width="31.8" height="31.8" rx="7.9" fill="url(#paint0_linear_49003_391)"/>
<rect x="3.1" y="2.1" width="31.8" height="31.8" rx="7.9" stroke="#D0D5DD" stroke-width="0.2"/>
<path d="M18.3546 13.1828C22.7105 11.4504 27.4742 12.8185 29.6373 14.9133C30.106 15.3671 30.5041 15.8275 30.845 16.2852C31.0394 15.2107 31.0552 14.1405 30.8681 13.1055C30.1847 9.32649 26.6195 7.18561 23.4233 8.29149C20.2415 9.3924 19.0005 11.5321 19.0005 11.5321C19.0005 11.5321 17.7595 9.3924 14.5777 8.29149C11.3812 7.18561 7.81603 9.32672 7.1328 13.1055C6.62842 15.8944 7.58356 18.9392 9.61033 21.6298C10.0372 21.7732 10.4847 21.8809 10.9586 21.9431C13.7978 22.3163 14.8184 21.557 16.0178 21.0486C16.8142 20.7113 17.4134 21.0942 17.3843 21.3626C17.3392 21.7786 15.7693 22.4895 16.106 22.6388C17.4351 23.2285 19.0718 23.2334 20.3053 22.18C21.838 20.8712 22.4114 21.7659 22.4114 21.7659C22.4114 21.7659 21.6502 23.7076 19.3581 24.6717C17.4457 25.4761 15.4419 25.6743 13.6107 25.4683C15.19 26.5846 17.0035 27.5204 19.0005 28.1883C24.7099 26.2784 28.9276 22.1871 30.4145 17.9096C29.4072 16.9157 28.1716 16.2996 26.6988 16.0763C23.8674 15.6471 22.8322 16.3863 21.6228 16.8708C20.8198 17.1926 20.2285 16.7978 20.263 16.5299C20.3161 16.1148 21.8999 15.4351 21.5661 15.279C20.249 14.6633 18.6125 14.626 17.3585 15.6549C15.8003 16.9332 15.2446 16.0274 15.2446 16.0274C15.2446 16.0274 16.0438 14.1015 18.3546 13.1828ZM17.2709 18.5052H18.3709V17.4052H19.6296V18.5052H20.7296V19.7639H19.6296V20.8639H18.3709V19.7639H17.2709V18.5052Z" fill="url(#paint1_linear_49003_391)"/>
<path d="M17.2709 18.5052H18.3709V17.4052H19.6296V18.5052H20.7295V19.7639H19.6378C21.2597 20.5834 24.2383 21.8027 27.8177 22.3451C28.9956 20.9517 29.8813 19.4428 30.4143 17.9096C29.4069 16.9157 28.1713 16.2996 26.6986 16.0763C23.8672 15.647 22.8319 16.3863 21.6226 16.8708C20.8196 17.1926 20.2282 16.7978 20.2627 16.5299C20.3159 16.1148 21.8997 15.4351 21.5659 15.279C20.2488 14.6633 18.6123 14.626 17.3583 15.6548C15.8 16.9332 15.2443 16.0274 15.2443 16.0274C15.2443 16.0274 16.0438 14.1013 18.3543 13.1823C22.7102 11.4499 27.4739 12.818 29.637 14.9128C30.1057 15.3666 30.5038 15.8271 30.8447 16.2847C31.0392 15.2102 31.055 14.14 30.8679 13.105C30.1844 9.326 26.6192 7.18512 23.423 8.291C20.2412 9.39191 19.0002 11.5316 19.0002 11.5316C19.0002 11.5316 17.7592 9.39191 14.5774 8.291C12.7519 7.65927 10.8067 8.0883 9.34619 9.27521C10.0323 10.7442 10.836 12.1168 13.1254 14.8773C14.9868 17.1222 17.2709 18.5052 17.2709 18.5052Z" fill="url(#paint2_linear_49003_391)"/>
<path opacity="0.31" d="M27.277 9.64954C24.2712 8.13944 21.169 10.4892 20.1851 11.7299C21.882 11.3725 23.3668 11.1892 25.2457 11.5839C28.0252 12.1679 29.0654 13.1715 30.3064 14.6542C30.0871 11.9069 28.3519 10.1896 27.277 9.64954Z" fill="url(#paint3_linear_49003_391)"/>
</g>
<path d="M45.264 28L51.432 10.12H55.656L61.824 28H58.272L57 24.16H50.088L48.792 28H45.264ZM51.024 21.28H56.064L53.088 12.376H54L51.024 21.28ZM63.5499 32.8V14.944H66.5019V17.536L66.2139 16.888C66.6619 16.184 67.2699 15.64 68.0379 15.256C68.8059 14.856 69.6939 14.656 70.7019 14.656C71.9339 14.656 73.0459 14.96 74.0379 15.568C75.0299 16.176 75.8139 16.992 76.3899 18.016C76.9819 19.04 77.2779 20.192 77.2779 21.472C77.2779 22.736 76.9899 23.888 76.4139 24.928C75.8379 25.968 75.0539 26.792 74.0619 27.4C73.0699 27.992 71.9419 28.288 70.6779 28.288C69.7339 28.288 68.8619 28.104 68.0619 27.736C67.2779 27.352 66.6539 26.808 66.1899 26.104L66.6939 25.48V32.8H63.5499ZM70.3179 25.408C71.0379 25.408 71.6779 25.24 72.2379 24.904C72.7979 24.568 73.2299 24.104 73.5339 23.512C73.8539 22.92 74.0139 22.24 74.0139 21.472C74.0139 20.704 73.8539 20.032 73.5339 19.456C73.2299 18.864 72.7979 18.4 72.2379 18.064C71.6779 17.712 71.0379 17.536 70.3179 17.536C69.6299 17.536 69.0059 17.704 68.4459 18.04C67.9019 18.376 67.4699 18.848 67.1499 19.456C66.8459 20.048 66.6939 20.72 66.6939 21.472C66.6939 22.24 66.8459 22.92 67.1499 23.512C67.4699 24.104 67.9019 24.568 68.4459 24.904C69.0059 25.24 69.6299 25.408 70.3179 25.408ZM79.6749 32.8V14.944H82.6269V17.536L82.3389 16.888C82.7869 16.184 83.3949 15.64 84.1629 15.256C84.9309 14.856 85.8189 14.656 86.8269 14.656C88.0589 14.656 89.1709 14.96 90.1629 15.568C91.1549 16.176 91.9389 16.992 92.5149 18.016C93.1069 19.04 93.4029 20.192 93.4029 21.472C93.4029 22.736 93.1149 23.888 92.5389 24.928C91.9629 25.968 91.1789 26.792 90.1869 27.4C89.1949 27.992 88.0669 28.288 86.8029 28.288C85.8589 28.288 84.9869 28.104 84.1869 27.736C83.4029 27.352 82.7789 26.808 82.3149 26.104L82.8189 25.48V32.8H79.6749ZM86.4429 25.408C87.1629 25.408 87.8029 25.24 88.3629 24.904C88.9229 24.568 89.3549 24.104 89.6589 23.512C89.9789 22.92 90.1389 22.24 90.1389 21.472C90.1389 20.704 89.9789 20.032 89.6589 19.456C89.3549 18.864 88.9229 18.4 88.3629 18.064C87.8029 17.712 87.1629 17.536 86.4429 17.536C85.7549 17.536 85.1309 17.704 84.5709 18.04C84.0269 18.376 83.5949 18.848 83.2749 19.456C82.9709 20.048 82.8189 20.72 82.8189 21.472C82.8189 22.24 82.9709 22.92 83.2749 23.512C83.5949 24.104 84.0269 24.568 84.5709 24.904C85.1309 25.24 85.7549 25.408 86.4429 25.408ZM102.184 28.288C100.904 28.288 99.7359 27.992 98.6799 27.4C97.6399 26.808 96.8079 26 96.1839 24.976C95.5759 23.952 95.2719 22.784 95.2719 21.472C95.2719 20.16 95.5759 18.992 96.1839 17.968C96.8079 16.944 97.6399 16.136 98.6799 15.544C99.7199 14.952 100.888 14.656 102.184 14.656C103.464 14.656 104.624 14.952 105.664 15.544C106.704 16.136 107.528 16.944 108.136 17.968C108.76 18.976 109.072 20.144 109.072 21.472C109.072 22.784 108.76 23.952 108.136 24.976C107.512 26 106.68 26.808 105.64 27.4C104.6 27.992 103.448 28.288 102.184 28.288ZM102.184 25.408C102.888 25.408 103.504 25.24 104.032 24.904C104.576 24.568 105 24.104 105.304 23.512C105.624 22.904 105.784 22.224 105.784 21.472C105.784 20.704 105.624 20.032 105.304 19.456C105 18.864 104.576 18.4 104.032 18.064C103.504 17.712 102.888 17.536 102.184 17.536C101.464 17.536 100.832 17.712 100.288 18.064C99.7439 18.4 99.3119 18.864 98.9919 19.456C98.6879 20.032 98.5359 20.704 98.5359 21.472C98.5359 22.224 98.6879 22.904 98.9919 23.512C99.3119 24.104 99.7439 24.568 100.288 24.904C100.832 25.24 101.464 25.408 102.184 25.408ZM111.456 28V14.944H114.6V28H111.456ZM111.456 13.48V10.12H114.6V13.48H111.456ZM117.503 28V14.944H120.455V17.512L120.215 17.056C120.519 16.272 121.015 15.68 121.703 15.28C122.407 14.864 123.223 14.656 124.151 14.656C125.111 14.656 125.959 14.864 126.695 15.28C127.447 15.696 128.031 16.28 128.447 17.032C128.863 17.768 129.071 18.624 129.071 19.6V28H125.927V20.344C125.927 19.768 125.815 19.272 125.591 18.856C125.367 18.44 125.055 18.12 124.655 17.896C124.271 17.656 123.815 17.536 123.287 17.536C122.775 17.536 122.319 17.656 121.919 17.896C121.519 18.12 121.207 18.44 120.983 18.856C120.759 19.272 120.647 19.768 120.647 20.344V28H117.503ZM137.682 28.144C136.21 28.144 135.066 27.744 134.25 26.944C133.45 26.128 133.05 24.984 133.05 23.512V17.752H130.794V14.944H131.034C131.674 14.944 132.17 14.776 132.522 14.44C132.874 14.104 133.05 13.616 133.05 12.976V11.968H136.194V14.944H139.194V17.752H136.194V23.344C136.194 23.776 136.266 24.144 136.41 24.448C136.57 24.752 136.81 24.984 137.13 25.144C137.466 25.304 137.89 25.384 138.402 25.384C138.514 25.384 138.642 25.376 138.786 25.36C138.946 25.344 139.098 25.328 139.242 25.312V28C139.018 28.032 138.762 28.064 138.474 28.096C138.186 28.128 137.922 28.144 137.682 28.144ZM141.908 28V10.12H145.028L151.724 19.216H150.236L156.788 10.12H159.908V28H156.62V13.84L157.892 14.152L151.1 23.2H150.716L144.092 14.152L145.172 13.84V28H141.908ZM169.258 28.288C167.914 28.288 166.738 27.984 165.73 27.376C164.722 26.768 163.938 25.944 163.378 24.904C162.818 23.864 162.538 22.712 162.538 21.448C162.538 20.136 162.818 18.976 163.378 17.968C163.954 16.944 164.73 16.136 165.706 15.544C166.698 14.952 167.802 14.656 169.018 14.656C170.042 14.656 170.938 14.824 171.706 15.16C172.49 15.496 173.154 15.96 173.698 16.552C174.242 17.144 174.658 17.824 174.946 18.592C175.234 19.344 175.378 20.16 175.378 21.04C175.378 21.264 175.362 21.496 175.33 21.736C175.314 21.976 175.274 22.184 175.21 22.36H165.13V19.96H173.434L171.946 21.088C172.09 20.352 172.05 19.696 171.826 19.12C171.618 18.544 171.266 18.088 170.77 17.752C170.29 17.416 169.706 17.248 169.018 17.248C168.362 17.248 167.778 17.416 167.266 17.752C166.754 18.072 166.362 18.552 166.09 19.192C165.834 19.816 165.738 20.576 165.802 21.472C165.738 22.272 165.842 22.984 166.114 23.608C166.402 24.216 166.818 24.688 167.362 25.024C167.922 25.36 168.562 25.528 169.282 25.528C170.002 25.528 170.61 25.376 171.106 25.072C171.618 24.768 172.018 24.36 172.306 23.848L174.85 25.096C174.594 25.72 174.194 26.272 173.65 26.752C173.106 27.232 172.458 27.608 171.706 27.88C170.97 28.152 170.154 28.288 169.258 28.288ZM183.833 28.288C182.569 28.288 181.441 27.992 180.449 27.4C179.457 26.792 178.673 25.968 178.097 24.928C177.521 23.888 177.233 22.736 177.233 21.472C177.233 20.192 177.521 19.04 178.097 18.016C178.673 16.992 179.457 16.176 180.449 15.568C181.457 14.96 182.577 14.656 183.809 14.656C184.801 14.656 185.681 14.856 186.449 15.256C187.233 15.64 187.849 16.184 188.297 16.888L187.817 17.536V9.832H190.961V28H187.985V25.48L188.321 26.104C187.873 26.808 187.249 27.352 186.449 27.736C185.649 28.104 184.777 28.288 183.833 28.288ZM184.169 25.408C184.889 25.408 185.521 25.24 186.065 24.904C186.609 24.568 187.033 24.104 187.337 23.512C187.657 22.92 187.817 22.24 187.817 21.472C187.817 20.72 187.657 20.048 187.337 19.456C187.033 18.848 186.609 18.376 186.065 18.04C185.521 17.704 184.889 17.536 184.169 17.536C183.465 17.536 182.833 17.712 182.273 18.064C181.713 18.4 181.273 18.864 180.953 19.456C180.649 20.032 180.497 20.704 180.497 21.472C180.497 22.24 180.649 22.92 180.953 23.512C181.273 24.104 181.713 24.568 182.273 24.904C182.833 25.24 183.465 25.408 184.169 25.408Z" fill="white"/>
<defs>
<filter id="filter0_dd_49003_391" x="0" y="0" width="38" height="38" filterUnits="userSpaceOnUse" color-interpolation-filters="sRGB">
<feFlood flood-opacity="0" result="BackgroundImageFix"/>
<feColorMatrix in="SourceAlpha" type="matrix" values="0 0 0 0 0 0 0 0 0 0 0 0 0 0 0 0 0 0 127 0" result="hardAlpha"/>
<feOffset dy="1"/>
<feGaussianBlur stdDeviation="1"/>
<feColorMatrix type="matrix" values="0 0 0 0 0.0627451 0 0 0 0 0.0941176 0 0 0 0 0.156863 0 0 0 0.06 0"/>
<feBlend mode="normal" in2="BackgroundImageFix" result="effect1_dropShadow_49003_391"/>
<feColorMatrix in="SourceAlpha" type="matrix" values="0 0 0 0 0 0 0 0 0 0 0 0 0 0 0 0 0 0 127 0" result="hardAlpha"/>
<feOffset dy="1"/>
<feGaussianBlur stdDeviation="1.5"/>
<feColorMatrix type="matrix" values="0 0 0 0 0.0627451 0 0 0 0 0.0941176 0 0 0 0 0.156863 0 0 0 0.1 0"/>
<feBlend mode="normal" in2="effect1_dropShadow_49003_391" result="effect2_dropShadow_49003_391"/>
<feBlend mode="normal" in="SourceGraphic" in2="effect2_dropShadow_49003_391" result="shape"/>
</filter>
<linearGradient id="paint0_linear_49003_391" x1="19" y1="2" x2="19" y2="34" gradientUnits="userSpaceOnUse">
<stop stop-color="white"/>
<stop offset="1" stop-color="#D0D5DD"/>
</linearGradient>
<linearGradient id="paint1_linear_49003_391" x1="10.1989" y1="24.2137" x2="27.8347" y2="6.57791" gradientUnits="userSpaceOnUse">
<stop stop-color="#0076C1"/>
<stop offset="0.0737" stop-color="#0B82C6"/>
<stop offset="0.2766" stop-color="#269ED3"/>
<stop offset="0.4546" stop-color="#36AFDA"/>
<stop offset="0.587" stop-color="#3CB5DD"/>
</linearGradient>
<linearGradient id="paint2_linear_49003_391" x1="10.1388" y1="24.2537" x2="27.8274" y2="6.56509" gradientUnits="userSpaceOnUse">
<stop stop-color="#00A482"/>
<stop offset="1" stop-color="#79DD83"/>
</linearGradient>
<linearGradient id="paint3_linear_49003_391" x1="24.8608" y1="13.5073" x2="28.5288" y2="10.1132" gradientUnits="userSpaceOnUse">
<stop stop-color="#00A482"/>
<stop offset="1" stop-color="#79DD83"/>
</linearGradient>
</defs>
</svg>
